<?xml version="1.0" encoding="UTF-8" standalone="no"?>
<!-- Created with Inkscape (http://www.inkscape.org/) -->

<svg
   id="svg5277"
   sodipodi:docname="earth.svg"
   viewBox="0 0 100.00001 99.999991"
   version="1.1"
   inkscape:version="1.4 (86a8ad7, 2024-10-11)"
   width="100.00001"
   height="99.999992"
   xmlns:inkscape="http://www.inkscape.org/namespaces/inkscape"
   xmlns:sodipodi="http://sodipodi.sourceforge.net/DTD/sodipodi-0.dtd"
   xmlns:xlink="http://www.w3.org/1999/xlink"
   xmlns="http://www.w3.org/2000/svg"
   xmlns:svg="http://www.w3.org/2000/svg"
   xmlns:rdf="http://www.w3.org/1999/02/22-rdf-syntax-ns#"
   xmlns:cc="http://creativecommons.org/ns#"
   xmlns:dc="http://purl.org/dc/elements/1.1/">
  <title
     id="title10465">Globe</title>
  <defs
     id="defs5279">
    <linearGradient
       id="linearGradient10345">
      <stop
         id="stop10347"
         style="stop-color:#0489ac;stop-opacity:.53846"
         offset="0" />
      <stop
         id="stop10349"
         style="stop-color:#0034ff"
         offset="1" />
    </linearGradient>
    <radialGradient
       id="radialGradient10461"
       xlink:href="#linearGradient10345"
       gradientUnits="userSpaceOnUse"
       cy="145.36"
       cx="254"
       gradientTransform="matrix(0.21898912,0,0,0.21898929,125.45351,110.58011)"
       r="226.03999"
       inkscape:collect="always" />
    <linearGradient
       id="linearGradient10463"
       y2="145.36"
       xlink:href="#linearGradient10345"
       gradientUnits="userSpaceOnUse"
       x2="480.04001"
       y1="145.36"
       x1="27.959"
       inkscape:collect="always"
       gradientTransform="matrix(0.21898912,0,0,0.23455684,125.45351,108.31718)" />
    <radialGradient
       id="radialGradient7775"
       gradientUnits="userSpaceOnUse"
       cy="359.51001"
       cx="365.70999"
       r="304.29001"
       inkscape:collect="always"
       gradientTransform="matrix(0.16427194,0,0,0.16431925,121.00017,83.339252)">
      <stop
         id="stop7779"
         style="stop-color:#ffffff;stop-opacity:.46392"
         offset="0" />
      <stop
         id="stop7783"
         style="stop-color:#91918f;stop-opacity:0"
         offset=".5" />
      <stop
         id="stop7785"
         style="stop-color:#5a5a57;stop-opacity:.19588"
         offset=".68972" />
      <stop
         id="stop7787"
         style="stop-color:#3f3e3b;stop-opacity:.45361"
         offset=".86538" />
      <stop
         id="stop7781"
         style="stop-color:#171715;stop-opacity:.74227"
         offset="1" />
    </radialGradient>
  </defs>
  <sodipodi:namedview
     id="base"
     bordercolor="#666666"
     inkscape:pageshadow="2"
     inkscape:window-y="-8"
     pagecolor="#ffffff"
     inkscape:window-height="1009"
     inkscape:window-maximized="1"
     inkscape:zoom="4"
     inkscape:window-x="-8"
     showgrid="false"
     borderopacity="1.0"
     inkscape:current-layer="layer1"
     inkscape:cx="115"
     inkscape:cy="41.375"
     inkscape:window-width="1920"
     inkscape:pageopacity="0.0"
     inkscape:document-units="px"
     inkscape:showpageshadow="2"
     inkscape:pagecheckerboard="0"
     inkscape:deskcolor="#d1d1d1" />
  <g
     id="layer1"
     inkscape:label="Layer 1"
     inkscape:groupmode="layer"
     transform="translate(-131.07677,-92.412853)">
    <path
       id="path9833"
       sodipodi:rx="49.491543"
       sodipodi:ry="49.491497"
       style="fill:url(#radialGradient10461);stroke:url(#linearGradient10463);stroke-width:1.00333"
       sodipodi:type="arc"
       d="M 157.17538,99.075439 A 49.491543,49.491497 0 0 1 224.39626,118.479 49.491543,49.491497 0 0 1 205.04319,185.71437 49.491543,49.491497 0 0 1 137.79323,166.41184 49.491543,49.491497 0 0 1 157.04525,99.147463"
       sodipodi:open="true"
       sodipodi:cy="142.41289"
       sodipodi:cx="181.07674"
       sodipodi:end="4.2053767"
       sodipodi:start="4.2083819"
       sodipodi:arc-type="arc" />
    <g
       id="g10428"
       style="fill:#00d400"
       transform="matrix(0.21648827,-0.03374134,0.0329951,0.22138458,93.190057,85.864768)">
      <path
         id="path10353"
         style="fill:#00d400"
         d="m 229,151.36 -28,25 42,10 -7,31 -1,60 12,18 5,-14 7,10 7,33 14,20 31,6 10,13 8,17 15,19 -29,31 -4,34 22,17 4,27 -11,12 45,-6 24,-38 26,-32 16,-33 -39,-14 -10,-11 -23,7 -7,-7 -5,-46 -1,-18 -20,12 -18,-9 -11,-22 5,-23 24,-2 14,3 8,12 18,-1 -27,-28 9,-18 29,-20 26,-15 -3,-10 -19,-2 3,-13 19,-7 10,-16 -22,-3 -43,3 -8,26 -28,-3 -1,-13 16,-24 15,-2 -2,-21 h -39 l -22,20 -17,-13 h -14 l -12,10 z" />
      <path
         id="path10355"
         style="fill:#00d400"
         d="m 380,113.36 -21,15 31,15 22,9 11,4 v -11 l -10,-19 -2,-11 -20,-1 h -6 z" />
      <path
         id="path10357"
         style="fill:#00d400"
         d="m 457,124.36 -15,4 21,28 12,-7 3,-4 10,8 21,12 -6,1 -6,10 h -7 l -10,-5 1,11 3,2 -1,4 4,8 8,-4 -5,5 5,3 12,-9 -11,-4 3,-3 v -2 l 1,-9 13,7 12,24 -16,3 -2,17 13,18 5,-2 -2,11 -10,2 1,11 16,22 21,-2 4,-28 5,4 2,31 -19,16 -17,15 14,13 11,2 5,16 1,18 -8,23 16,-31 7,-49 -2,-33 -11,-41 -20,-42 -18,-23 -20,-22 -23,-18 z" />
    </g>
    <ellipse
       id="path7041"
       style="color:#000000;fill:url(#radialGradient7775);fill-rule:evenodd;stroke-width:0.404414"
       cx="181.07677"
       cy="142.41284"
       rx="49.985603"
       ry="50" />
  </g>
  <metadata
     id="metadata1">
    <rdf:RDF>
      <cc:Work>
        <dc:format>image/svg+xml</dc:format>
        <dc:type
           rdf:resource="http://purl.org/dc/dcmitype/StillImage" />
        <cc:license
           rdf:resource="http://creativecommons.org/publicdomain/zero/1.0/" />
        <dc:publisher>
          <cc:Agent
             rdf:about="http://openclipart.org/">
            <dc:title>Openclipart</dc:title>
          </cc:Agent>
        </dc:publisher>
        <dc:title>Earth</dc:title>
        <dc:date>2010-09-26T10:30:40</dc:date>
        <dc:description>Earth</dc:description>
        <dc:source>https://openclipart.org/detail/87037/earth-by-stevepetmonkey</dc:source>
        <dc:creator>
          <cc:Agent>
            <dc:title>stevepetmonkey</dc:title>
          </cc:Agent>
        </dc:creator>
        <dc:subject>
          <rdf:Bag>
            <rdf:li>Earth</rdf:li>
            <rdf:li>Global</rdf:li>
            <rdf:li>Globe</rdf:li>
            <rdf:li>Planet</rdf:li>
            <rdf:li>Space</rdf:li>
          </rdf:Bag>
        </dc:subject>
      </cc:Work>
      <cc:License
         rdf:about="http://creativecommons.org/publicdomain/zero/1.0/">
        <cc:permits
           rdf:resource="http://creativecommons.org/ns#Reproduction" />
        <cc:permits
           rdf:resource="http://creativecommons.org/ns#Distribution" />
        <cc:permits
           rdf:resource="http://creativecommons.org/ns#DerivativeWorks" />
      </cc:License>
    </rdf:RDF>
  </metadata>
</svg>
